<?xml version="1.0" encoding="utf-8"?>
<!-- Generator: Adobe Illustrator 18.0.0, SVG Export Plug-In . SVG Version: 6.00 Build 0)  -->
<!DOCTYPE svg PUBLIC "-//W3C//DTD SVG 1.1//EN" "http://www.w3.org/Graphics/SVG/1.1/DTD/svg11.dtd">
<svg version="1.1" id="Layer_1" xmlns="http://www.w3.org/2000/svg" xmlns:xlink="http://www.w3.org/1999/xlink" x="0px" y="0px"
	 viewBox="0 0 100 100" enable-background="new 0 0 100 100" xml:space="preserve">
<g>
	<path fill="#FFFFFF" enable-background="new    " d="M94.2,45c0-5.7-4.6-10.3-10.2-10.3c-0.4,0-0.8,0-1.2,0.1c0.6-2.3,1-4.8,1-7.3
		c0-12.3-8-22.7-19-26.2h0c0,0,0,0,0,0c-0.3-0.1-0.6-0.2-0.9-0.2c-0.5-0.1-1-0.3-1.5-0.4c-0.3-0.1-0.6-0.1-0.9-0.2
		c-0.5-0.1-1.1-0.2-1.6-0.3c-0.3,0-0.5-0.1-0.8-0.1C58.1,0.1,57.3,0,56.4,0c-12,0-22.2,7.9-25.8,18.8c-1.9-0.7-3.9-1-6.1-1
		c-10.3,0-18.6,8.4-18.6,18.8c0,5.2,2.1,9.9,5.5,13.3c3.4,3.4,8,5.5,13.2,5.5c0,0,0,0,0,0v0h0h9.9h50.4l0-0.1
		C90,54.8,94.2,50.4,94.2,45z"/>
	<path fill="#2FB9F0" d="M47.7,82.3L40.4,61l-7.3,21.3c-1.6,4.6-4,10.6,0,14.7c4,4,10.6,4,14.7,0C51.8,92.9,49.6,88.3,47.7,82.3z"/>
</g>
</svg>
