<?xml version="1.0" encoding="utf-8"?>
<!DOCTYPE svg PUBLIC "-//W3C//DTD SVG 1.1//EN" "http://www.w3.org/Graphics/SVG/1.1/DTD/svg11.dtd">
<svg version="1.1" xmlns="http://www.w3.org/2000/svg" xmlns:xlink="http://www.w3.org/1999/xlink" height="384" width="32">

  <symbol id="misc-rss" viewBox="0 0 50 50">
    <title>RSS</title>
    <desc></desc>
    <rect x="0" fill="#FF8C00" width="50" height="50"/>
    <path fill="#FFFFFF" d="M31.5,41.3h-5.6c0-9.5-7.7-17.2-17.2-17.2v-5.6C21.3,18.5,31.5,28.7,31.5,41.3z"/>
    <path fill="#FFFFFF" d="M41.3,41.3h-5.6c0-14.9-12.2-27-27-27V8.7C26.7,8.7,41.3,23.3,41.3,41.3z"/>
    <circle fill="#FFFFFF" cx="14.2" cy="35.8" r="5.5"/>
  </symbol>

  <symbol id="misc-rss-alt" viewBox="5 5 40 40">
    <path fill="#FFFFFF" d="M31.5,41.3h-5.6c0-9.5-7.7-17.2-17.2-17.2v-5.6C21.3,18.5,31.5,28.7,31.5,41.3z"/>
    <path fill="#FFFFFF" d="M41.3,41.3h-5.6c0-14.9-12.2-27-27-27V8.7C26.7,8.7,41.3,23.3,41.3,41.3z"/>
    <circle fill="#FFFFFF" cx="14.2" cy="35.8" r="5.5"/>
  </symbol>

  <symbol id="misc-chart" viewBox="-1 -1 34 34">
    <rect y="15.8" fill="#FFFFFF" width="5.6" height="16.2"/>
    <rect x="8.8" y="11.4" fill="#FFFFFF" width="5.6" height="20.6"/>
    <rect x="17.6" y="18.4" fill="#FFFFFF" width="5.6" height="13.6"/>
    <rect x="26.4" y="13.6" fill="#FFFFFF" width="5.6" height="18.4"/>
    <polygon fill="#FFFFFF" points="19.9,12 13.6,2.9 2.8,10.8 2,9.7 14,0.8 20.2,9.9 29.8,1.4 30.4,2.1 29.9,2.6 30.2,3 "/>
    <circle fill="#FFFFFF" cx="2.1" cy="10.4" r="2.1"/>
    <circle fill="#FFFFFF" cx="13.8" cy="2.1" r="2.1"/>
    <circle fill="#FFFFFF" cx="19.8" cy="11" r="2.1"/>
    <circle fill="#FFFFFF" cx="29.9" cy="2.4" r="2.1"/>
  </symbol>

  <symbol id="misc-notification" viewBox="-2 -1 35 35">
    <path fill="#FFFFFF" d="M22.9,19H9.1c-0.8,0-1.5-0.7-1.5-1.5c0-0.8,0.7-1.5,1.5-1.5h13.8c0.8,0,1.5,0.7,1.5,1.5
	C24.4,18.3,23.7,19,22.9,19z"/>
    <path fill="#FFFFFF" d="M22.9,25H9.1c-0.8,0-1.5-0.7-1.5-1.5S8.3,22,9.1,22h13.8c0.8,0,1.5,0.7,1.5,1.5S23.7,25,22.9,25z"/>
    <path fill="#FFFFFF" d="M27.8,32H4.2C3.5,32,3,31.4,3,30.8V1.2C3,0.6,3.5,0,4.2,0h14.2c0.3,0,0.6,0.1,0.9,0.4l9.4,9.4
	c0.2,0.2,0.4,0.5,0.4,0.9v20.1C29,31.4,28.5,32,27.8,32z M5.4,29.5h21.2V11.2l-8.7-8.7H5.4V29.5z"/>
    <path fill="#FFFFFF" d="M27.5,11.9h-9.1c-0.7,0-1.2-0.6-1.2-1.2V1.5c0-0.7,0.6-1.2,1.2-1.2s1.2,0.6,1.2,1.2v7.9h7.9
	c0.7,0,1.2,0.6,1.2,1.2S28.2,11.9,27.5,11.9z"/>
  </symbol>

  <symbol id="misc-alert-billing" viewBox="-2 -1 35 35">
    <path fill-rule="evenodd" clip-rule="evenodd" fill="#FFFFFF" d="M25.2,20.5h-8.8H7.7c-1.4,0-2.1-1.2-1.4-2.3l4.4-7.6L15,3.4
	c0.7-1.2,2.1-1.1,2.8,0l4.4,7.6l4.4,7.2C27.3,19.3,26.6,20.5,25.2,20.5z M28,0H3.8C1.6,0,0,1.6,0,3.8V20c0,2.2,1.6,4.2,3.9,4.3h5.8
	L20.5,32l-0.9-7.7h8.4c2.2,0,4.1-1.7,4.1-4V4.1C32,1.8,30.2,0,28,0z"/>
    <path fill="#FFFFFF" d="M15,17c0-0.8,0.6-1.4,1.4-1.4c0.8,0,1.4,0.6,1.4,1.4c0,0.8-0.5,1.4-1.4,1.4C15.6,18.4,15,17.8,15,17z
	 M15.5,14.9l-0.4-7h2.4l-0.3,7H15.5z"/>
  </symbol>

  <symbol id="misc-alert-monitor" viewBox="-2 -1 35 35">
    <path fill="#FFFFFF" d="M10.5,12.5L7.3,9.8c-1.4,2-2,4.3-1.9,6.5L9.5,16C9.5,14.8,9.9,13.5,10.5,12.5"/>
    <path fill="#FFFFFF" d="M19.6,10.4l2.6-3.2c-2-1.4-4.3-2-6.6-1.9l0.4,4.1C17.3,9.4,18.5,9.7,19.6,10.4"/>
    <path fill="#FFFFFF" d="M14.6,9.6l-0.4-4.1c-2.2,0.4-4.3,1.5-6,3.3l3.2,2.6C12.3,10.4,13.4,9.8,14.6,9.6"/>
    <path fill="#FFFFFF" d="M9.7,17.4l-4.1,0.4c0.4,2.2,1.5,4.4,3.3,6l2.6-3.2C10.5,19.7,9.9,18.6,9.7,17.4"/>
    <path fill="#FFFFFF" d="M23.3,8.1l-2.6,3.2c0.6,0.6,1.1,1.4,1.4,2.2h4.3C26,11.5,24.9,9.6,23.3,8.1z"/>
    <path fill="#FFFFFF" d="M28.3,16C28.3,16,28.3,16,28.3,16c0-0.8-0.6-1.4-1.4-1.4l0,0l-0.4,0h-4.3h-4.9c0,0,0,0,0,0
	c-0.4-0.4-0.8-0.5-1.3-0.5c-0.5,0-1,0.2-1.3,0.6c-0.7,0.7-0.7,1.9,0,2.6c0.4,0.4,0.8,0.5,1.3,0.5c0.4,0,0.9-0.2,1.2-0.5H27
	C27.7,17.3,28.3,16.7,28.3,16L28.3,16C28.3,16,28.3,16,28.3,16z"/>
    <path fill="#FFFFFF" d="M16,2.7c7.3,0,13.3,6,13.3,13.3s-6,13.3-13.3,13.3S2.7,23.3,2.7,16S8.7,2.7,16,2.7 M16,0C7.2,0,0,7.2,0,16
	s7.2,16,16,16s16-7.2,16-16S24.8,0,16,0L16,0z"/>
  </symbol>

  <symbol id="misc-infographic" viewBox="-2 -1 35 35">
    <path fill="#FFFFFF" d="M24.9,19.9c-2.6,0-4.8-0.5-4.8-0.9c0-0.5,2.2-0.9,4.8-0.9s4.8,0.5,4.8,0.9C29.7,19.4,27.4,19.9,24.9,19.9z
	 M24.9,16.9c-4,0-6.9,0.7-6.9,1.8v11.4c0,0.9,2.9,1.8,6.9,1.8s7.1-0.8,7.1-1.8V18.6C32,17.6,28.8,16.9,24.9,16.9z"/>
    <path fill="#FFFFFF" d="M5.3,23.5c0.5-1.2,2.1-1.9,3.3-1.3c1.2,0.5,1.9,2.1,1.3,3.3c-0.5,1.2-2.1,1.9-3.3,1.3
	C5.4,26.3,4.7,24.9,5.3,23.5z M11.3,31.3l0-0.3l-0.1-2l0.9-0.9l2.3,0.2l0.6-1.5l-0.2-0.3l-1.5-1.3l0.1-1.3l1.8-1.5l-0.8-1.6l-0.3,0
	l-2,0.1L11.1,20l0.2-2.3L9.7,17l-0.3,0.2l-1.3,1.5l-1.3-0.1l-1.6-1.6l-1.6,0.6l0,0.3l0.1,2L3,20.9l-2.2-0.1l-0.7,1.6l0.2,0.3L1.8,24
	l-0.1,1.3L0,26.8l0.6,1.6l0.3,0l2-0.1l0.9,0.9l-0.1,2.2L5.4,32l0.3-0.2l1.1-1.5L8,30.4L9.4,32c0.3,0,0.5-0.1,0.9-0.1L11.3,31.3z"/>
    <rect x="7" y="13" fill="#FFFFFF" width="1" height="4"/>
    <rect x="24" y="13" fill="#FFFFFF" width="1" height="3"/>
    <path fill="#FFFFFF" d="M0,0v12h15V0H0z M11,9H2V7h9V9z M13,5H2V3h11V5z"/>
    <path fill="#FFFFFF" d="M17,0v12h15V0H17z M28,9h-9V7h9V9z M30,5H19V3h11V5z"/>
  </symbol>

  <symbol id="misc-tutorial" viewBox="-2 -1 35 35">
    <path fill="#FFFFFF" d="M2.7,11.6l3.5-4.5C6.3,7,6.4,6.8,6.3,6.7L6.3,6.5L5.6,5.9C5.5,5.8,5.4,5.8,5.3,5.8L5,5.8L2.6,8.9L1.4,7.6
	C1.3,7.5,1.2,7.5,1,7.5l-0.2,0L0.2,8.1C0,8.3-0.1,8.6,0.1,8.8L2.7,11.6z"/>
    <path fill="#FFFFFF" d="M5.6,13.2c-0.1-0.1-0.2-0.1-0.3-0.1L5,13.2l-2.4,3.1L1.4,15c-0.1-0.1-0.2-0.2-0.4-0.2l-0.2,0l-0.6,0.6
	c-0.2,0.2-0.2,0.5,0,0.7L2.7,19l3.5-4.5c0.1-0.1,0.1-0.2,0.1-0.4l-0.1-0.3L5.6,13.2z"/>
    <path fill="#FFFFFF" d="M5.6,20.5c-0.1-0.1-0.2-0.1-0.3-0.1L5,20.4l-2.4,3.1l-1.2-1.3c-0.1-0.1-0.2-0.2-0.4-0.2l-0.2,0l-0.6,0.6
	c-0.2,0.2-0.2,0.5,0,0.7l2.6,2.8l3.5-4.5c0.1-0.1,0.1-0.2,0.1-0.4L6.3,21L5.6,20.5z"/>
    <path fill-rule="evenodd" clip-rule="evenodd" fill="#FFFFFF" d="M28,8.8H9.7c-0.6,0-1.2,0.5-1.2,1.1c0,0.6,0.5,1.1,1.2,1.1H28
	c0.6,0,1.2-0.5,1.2-1.1C29.2,9.3,28.7,8.8,28,8.8z"/>
    <path fill-rule="evenodd" clip-rule="evenodd" fill="#FFFFFF" d="M30.8,15.3H9.7c-0.6,0-1.2,0.5-1.2,1.1c0,0.6,0.5,1.1,1.2,1.1h21.1
	c0.6,0,1.2-0.5,1.2-1.1C32,15.8,31.5,15.3,30.8,15.3z"/>
    <path fill-rule="evenodd" clip-rule="evenodd" fill="#FFFFFF" d="M25.6,21.9H9.7c-0.6,0-1.2,0.5-1.2,1.1c0,0.6,0.5,1.1,1.2,1.1h15.9
	c0.6,0,1.2-0.5,1.2-1.1C26.8,22.3,26.2,21.9,25.6,21.9z"/>
  </symbol>

  <symbol id="misc-video" viewBox="-2 -1 35 35">
    <path fill="#FFFFFF" d="M16,32C7.2,32,0,24.8,0,16C0,7.2,7.2,0,16,0s16,7.2,16,16C32,24.8,24.8,32,16,32z M16,2.1
	C8.4,2.1,2.1,8.4,2.1,16c0,7.6,6.2,13.9,13.9,13.9S29.9,23.6,29.9,16C29.9,8.4,23.6,2.1,16,2.1z"/>
    <polygon fill-rule="evenodd" clip-rule="evenodd" fill="#FFFFFF" points="10,7.6 24.6,16 10,24.4 "/>
  </symbol>

  <symbol id="misc-calendar" viewBox="-1 -1 17 17">
    <path fill="#FFFFFF" d="M14.1,0H0.9C0.4,0,0,0.4,0,0.9V14c0,0.6,0.4,1,0.9,1H14c0.5,0,1-0.4,1-0.9V0.9C15.1,0.4,14.6,0,14.1,0z
		 M14,14H1V4h13V14z"/>
    <rect x="5" y="5" fill="#FFFFFF" width="2" height="2"/>
    <rect x="8" y="5" fill="#FFFFFF" width="2" height="2"/>
    <rect x="2" y="8" fill="#FFFFFF" width="2" height="2"/>
    <rect x="5" y="8" fill="#FFFFFF" width="2" height="2"/>
    <rect x="8" y="8" fill="#FFFFFF" width="2" height="2"/>
    <rect x="2" y="11" fill="#FFFFFF" width="2" height="2"/>
    <rect x="5" y="11" fill="#FFFFFF" width="2" height="2"/>
    <rect x="8" y="11" fill="#FFFFFF" width="2" height="2"/>
    <rect x="11" y="8" fill="#FFFFFF" width="2" height="2"/>
    <rect x="11" y="5" fill="#FFFFFF" width="2" height="2"/>
  </symbol>

  <symbol id="misc-application-services" viewBox="-1 -1 34 34">
    <path fill-rule="evenodd" clip-rule="evenodd" fill="#FFFFFF" d="M21.4,7.9l-0.2-0.1l-1.5-0.5l-0.4-1l0.8-1.6l-1-1l-0.2,0.1   l-1.4,0.7l-0.9-0.4L16,2.5h-1.4l-0.1,0.2l-0.5,1.5l-0.9,0.4l-1.6-0.8l-1,1L10.7,5l0.7,1.4l-0.4,1L9.3,7.9v1.4l0.2,0.1L11,9.9l0.4,1   l-0.8,1.6l1,1l0.2-0.1l1.4-0.7l0.9,0.4l0.6,1.7H16l0.1-0.2l0.5-1.5l0.9-0.4l1.6,0.8l1-1L20,12.2l-0.7-1.4l0.4-0.9l1.7-0.6V7.9z    M17.5,8.6c0,1.2-1,2.2-2.2,2.2s-2.2-1-2.2-2.2c0-1.2,1-2.2,2.2-2.2S17.5,7.4,17.5,8.6z"/>
    <path fill-rule="evenodd" clip-rule="evenodd" fill="#FFFFFF" d="M32,16.3l-0.2-0.1l-1.5-0.5l-0.4-1l0.8-1.6l-1-1l-0.2,0.1L28.2,13   l-0.9-0.4l-0.6-1.7h-1.4l-0.1,0.2l-0.5,1.5L23.8,13l-1.6-0.8l-1,1l0.1,0.2l0.7,1.4l-0.4,1l-1.7,0.6v1.4l0.2,0.1l1.5,0.5l0.4,1   l-0.8,1.6l1,1l0.2-0.1l1.4-0.7l0.9,0.4l0.6,1.7h1.4l0.1-0.2l0.5-1.5l0.9-0.4l1.6,0.8l1-1l-0.1-0.2l-0.7-1.4l0.4-1l1.7-0.6V16.3z    M28.1,17c0,1.2-0.9,2.1-2.1,2.1c-1.1,0-2.1-0.9-2.1-2.1s0.9-2.1,2.1-2.1C27.1,14.9,28.1,15.8,28.1,17z"/>
    <path fill-rule="evenodd" clip-rule="evenodd" fill="#FFFFFF" d="M14.8,21.2l-0.2-0.1l-1.8-0.6l-0.5-1.2l0.9-2L12,16.1l-0.2,0.1   l-1.7,0.9l-1.2-0.5l-0.7-2.1H6.5l-0.1,0.2l-0.6,1.8l-1.2,0.5l-2-0.9l-1.2,1.2l0.1,0.2l0.9,1.7L2,20.5l-2,0.7v1.7L0.2,23L2,23.6   l0.5,1.2l-0.9,2l1.2,1.2L3,27.8L4.7,27l1.2,0.5l0.7,2.1h1.7l0.1-0.2l0.6-1.8l1.2-0.5l2,0.9l1.2-1.2l-0.1-0.2l-0.9-1.7l0.5-1.2   l2-0.7V21.2z M9.7,22c0,1.3-1.1,2.4-2.4,2.4C6.1,24.4,5,23.4,5,22c0-1.3,1-2.4,2.4-2.4C8.7,19.7,9.7,20.7,9.7,22z"/>
  </symbol>

  <symbol id="misc-data-services" viewBox="463 263 35 35">
    <path fill="#FFFFFF" d="M480,264c-6.8,0-12.3,2.3-12.3,4.7v22.4c0,2.6,5.5,4.9,12.3,4.9s12.3-2.2,12.3-4.7v-22.4  C492.3,266.4,486.8,264,480,264z M486.7,280.1c-0.4,0.4-1,0.6-1.6,0.6c-0.4,0-0.8,0-1.1-0.1c-0.4-0.1-0.7-0.2-1-0.3  c-0.1,0.1-0.3,0.3-0.6,0.6c-0.2,0.3-0.5,0.7-0.8,1.1c0.3,1.2,0.5,2.1,0.7,2.6c0.2,0.5,0.3,1,0.5,1.6c0.1,0.4,0.3,0.7,0.6,1  c0.3,0.2,0.7,0.4,1.2,0.4c0.2,0,0.5,0,0.8-0.1c0.3-0.1,0.6-0.2,0.8-0.2l-0.3,1.1c-0.8,0.3-1.5,0.6-2.1,0.7s-1.1,0.2-1.6,0.2  c-0.3,0-0.7,0-1-0.1c-0.3-0.1-0.6-0.2-0.9-0.3c-0.3-0.2-0.5-0.4-0.7-0.7c-0.2-0.3-0.4-0.6-0.5-1.1c-0.1-0.3-0.2-0.6-0.3-1  c-0.1-0.4-0.2-0.7-0.2-1c-0.2,0.3-0.4,0.6-0.5,0.8c-0.1,0.2-0.3,0.4-0.5,0.7c-0.6,1-1.2,1.7-1.6,2.1s-1,0.6-1.7,0.6  c-0.5,0-0.9-0.2-1.2-0.5c-0.3-0.3-0.5-0.8-0.5-1.3c0-0.7,0.2-1.3,0.7-1.7c0.4-0.4,1-0.6,1.6-0.6c0.4,0,0.8,0,1.1,0.1  c0.4,0.1,0.7,0.2,1,0.3c0.1-0.1,0.3-0.3,0.6-0.6c0.3-0.3,0.5-0.6,0.8-1c-0.3-1.1-0.5-1.9-0.7-2.4c-0.2-0.5-0.3-1.1-0.5-1.6  c-0.1-0.4-0.4-0.8-0.6-1c-0.3-0.2-0.7-0.4-1.2-0.4c-0.2,0-0.5,0-0.8,0.1c-0.3,0.1-0.5,0.2-0.7,0.2l0.3-1.1c0.7-0.3,1.4-0.6,2-0.7  c0.6-0.2,1.2-0.2,1.6-0.2c0.4,0,0.7,0,1,0.1c0.3,0.1,0.6,0.2,0.9,0.4c0.3,0.2,0.5,0.4,0.7,0.7c0.2,0.3,0.4,0.6,0.5,1.1  c0.1,0.3,0.2,0.7,0.3,1c0.1,0.3,0.1,0.6,0.2,0.9c0.2-0.3,0.3-0.5,0.5-0.8c0.2-0.3,0.3-0.5,0.5-0.7c0.6-1,1.2-1.7,1.7-2.1  c0.5-0.4,1-0.6,1.7-0.6c0.5,0,0.9,0.2,1.3,0.5c0.3,0.3,0.5,0.8,0.5,1.3C487.4,279.1,487.2,279.7,486.7,280.1z M480,271  c-4.8,0-8.8-1.2-8.8-2.6s3.9-2.6,8.8-2.6c4.8,0,8.8,1.2,8.8,2.6S484.8,271,480,271z"/>
  </symbol>

  <use xlink:href="#misc-rss"                   x="0"   y="0"    width="32" height="32" />
  <use xlink:href="#misc-rss-alt"               x="0"   y="32"   width="32" height="32" />
  <use xlink:href="#misc-chart"                 x="0"   y="64"   width="32" height="32" />
  <use xlink:href="#misc-notification"          x="0"   y="96"   width="32" height="32" />
  <use xlink:href="#misc-alert-billing"         x="0"   y="128"  width="32" height="32" />
  <use xlink:href="#misc-alert-monitor"         x="0"   y="160"  width="32" height="32" />

  <use xlink:href="#misc-infographic"           x="0"   y="192"  width="32" height="32" />
  <use xlink:href="#misc-tutorial"              x="0"   y="224"  width="32" height="32" />
  <use xlink:href="#misc-video"                 x="0"   y="256"  width="32" height="32" />
  <use xlink:href="#misc-calendar"              x="0"   y="288"  width="32" height="32" />
  <use xlink:href="#misc-application-services"  x="0"   y="320"  width="32" height="32" />
  <use xlink:href="#misc-data-services"         x="0"   y="352"  width="32" height="32" />
</svg>
