<?xml version="1.0" encoding="utf-8"?>
<!DOCTYPE svg PUBLIC "-//W3C//DTD SVG 1.1//EN" "http://www.w3.org/Graphics/SVG/1.1/DTD/svg11.dtd">
<svg version="1.1" xmlns="http://www.w3.org/2000/svg" xmlns:xlink="http://www.w3.org/1999/xlink" height="160" width="32">
    <symbol id="health-error" viewBox="2 2 13 13">
        <path fill="#EC008C" d="M8.5,14C5.467,14,3,11.532,3,8.5C3,5.467,5.467,3,8.5,3C11.532,3,14,5.467,14,8.5C14,11.532,11.532,14,8.5,14z"/>
        <path fill="#FFFFFF" d="M8.5,3.5c2.757,0,5,2.243,5,5s-2.243,5-5,5s-5-2.243-5-5S5.743,3.5,8.5,3.5 M8.5,2.5c-3.314,0-6,2.686-6,6s2.686,6,6,6s6-2.686,6-6S11.814,2.5,8.5,2.5L8.5,2.5z"/>
        <circle fill="#FFFFFF" cx="8.5" cy="11.084" r="0.929"/>
        <polygon fill="#FFFFFF" points="8.639,5.415 8.361,5.415 7.667,5.415 7.915,9.723 8.361,9.723 8.639,9.723 9.085,9.723 9.333,5.415"/>
    </symbol>

    <symbol id="health-info" viewBox="2 2 13 13">
        <path fill="#0072C6" d="M8.5,14C5.467,14,3,11.532,3,8.5C3,5.467,5.467,3,8.5,3C11.532,3,14,5.467,14,8.5C14,11.532,11.532,14,8.5,14z"/>
        <path fill="#FFFFFF" d="M8.5,3.5c2.757,0,5,2.243,5,5s-2.243,5-5,5s-5-2.243-5-5S5.743,3.5,8.5,3.5 M8.5,2.5c-3.314,0-6,2.686-6,6s2.686,6,6,6s6-2.686,6-6S11.814,2.5,8.5,2.5L8.5,2.5z"/>
        <circle fill="#FFFFFF" cx="8.5" cy="5.951" r="0.951"/>
        <polygon fill="#FFFFFF" points="8.357,12 8.642,12 9.353,12 9.353,7.836 8.642,7.836 8.357,7.836 7.656,7.836 7.647,12 "/>
    </symbol>

    <symbol id="health-success" viewBox="2 2 13 13">
        <path fill="#7FBA00" d="M8.5,14C5.364,14,3,11.636,3,8.5S5.364,3,8.5,3S14,5.364,14,8.5S11.636,14,8.5,14z"/>
        <path fill="#FFFFFF" d="M8.5,3.5c2.897,0,5,2.103,5,5s-2.103,5-5,5s-5-2.103-5-5S5.603,3.5,8.5,3.5 M8.5,2.5c-3.429,0-6,2.571-6,6 s2.571,6,6,6s6-2.571,6-6S11.929,2.5,8.5,2.5L8.5,2.5z"/>
        <polygon fill="#FFFFFF" points="5.071,8.5 5.071,8.5 5.929,7.643 5.929,7.643 5.929,7.643 7.643,9.357 11.071,5.929 11.071,5.929 11.071,5.929 11.929,6.786 11.929,6.786 11.929,6.786 7.643,11.071 "/>
    </symbol>

    <symbol id="health-warning" viewBox="2.0 2.8 12 12">
        <path fill="#FF8C00" d="M3.396,13.042c-0.23,0-0.337-0.129-0.381-0.205c-0.081-0.141-0.074-0.317,0.018-0.474l2.327-4.056 l2.295-3.806c0.093-0.155,0.22-0.244,0.349-0.244c0.124,0,0.24,0.082,0.326,0.229l4.632,7.886c0.097,0.159,0.106,0.334,0.029,0.47 c-0.072,0.128-0.21,0.199-0.387,0.199H3.396z"/>
        <path fill="#FFFFFF" d="M7.995,4.823l2.271,3.867l2.282,3.894H8.001l-4.566-0.001l2.311-4.029L7.995,4.823 M8.003,3.8 c-0.277,0-0.555,0.156-0.742,0.465l-2.3,3.815l-2.324,4.051C2.276,12.744,2.662,13.5,3.396,13.5h4.606h4.602 c0.751,0,1.12-0.748,0.753-1.36l-2.3-3.915l-2.332-3.97C8.546,3.951,8.275,3.8,8.003,3.8L8.003,3.8z"/>
        <circle fill="#FFFFFF" cx="7.888" cy="11.436" r="0.807"/>
        <polygon fill="#FFFFFF" points="8.04,6.972 7.813,6.972 7.249,6.972 7.451,10.202 7.813,10.202 8.04,10.202 8.403,10.202 8.605,6.972 "/>
    </symbol>

    <symbol id="health-check" viewBox="-4 -4 24 24">
        <path fill="#7FBA00" d="M0.632,8.853L0.101,8.278C-0.037,8.126-0.037,7.885,0.123,7.74l1.534-1.418 c0.073-0.066,0.16-0.101,0.255-0.101c0.108,0,0.204,0.044,0.276,0.123l4.218,4.523l7.258-9.296c0.073-0.094,0.182-0.145,0.298-0.145 c0.088,0,0.167,0.029,0.233,0.081l1.659,1.28c0.081,0.059,0.13,0.145,0.145,0.248c0.007,0.101-0.015,0.204-0.081,0.276L6.595,15.246 L0.632,8.853z"/>
    </symbol>

    <use xlink:href="#health-error"    x="0"   y="0"   width="32" height="32" />
    <use xlink:href="#health-info"     x="0"   y="32"  width="32" height="32" />
    <use xlink:href="#health-success"  x="0"   y="64"  width="32" height="32" />
    <use xlink:href="#health-warning"  x="0"   y="96"  width="32" height="32" />
    <use xlink:href="#health-check"    x="0"   y="128" width="32" height="32" />
</svg>
